<?xml version="1.0" standalone="no"?>
<!DOCTYPE svg PUBLIC "-//W3C//DTD SVG 20010904//EN"
 "http://www.w3.org/TR/2001/REC-SVG-20010904/DTD/svg10.dtd">
<svg version="1.0" xmlns="http://www.w3.org/2000/svg"
 width="700.000000pt" height="700.000000pt" viewBox="0 0 700.000000 700.000000"
 preserveAspectRatio="xMidYMid meet">
<metadata>
Created by potrace 1.11, written by Peter Selinger 2001-2013
</metadata>
<g transform="translate(0.000000,700.000000) scale(0.100000,-0.100000)"
fill="#000000" stroke="none">
<path d="M4218 6135 c-2 -2 -43 -5 -93 -9 -283 -20 -557 -151 -764 -366 -197
-204 -313 -410 -395 -695 -57 -200 -77 -372 -79 -667 l-1 -158 -326 0 -325 0
0 -157 0 -158 35 -5 c32 -5 35 -8 34 -38 0 -18 4 -36 10 -40 6 -4 137 -7 291
-7 l280 0 1 -1180 c0 -653 -4 -1202 -9 -1230 -24 -137 -124 -216 -293 -231
-32 -3 -75 -7 -94 -9 -19 -2 -47 -4 -62 -4 l-26 -1 1 -110 c0 -93 3 -110 16
-111 9 -1 23 -2 31 -3 10 -1 16 -14 18 -38 2 -21 9 -39 15 -39 7 -1 398 -2
870 -3 l857 -2 0 114 c0 84 -3 112 -12 111 -49 -6 -58 0 -58 41 0 38 -1 40
-32 41 -18 1 -42 3 -53 4 -11 1 -49 5 -85 9 -150 16 -306 59 -345 96 -44 42
-45 57 -45 1333 l0 1212 423 0 422 0 0 160 0 160 -25 0 c-38 1 -46 10 -44 49
l2 36 -390 0 -391 0 6 333 c3 182 8 341 10 352 3 12 8 52 11 90 29 307 119
555 246 673 27 25 109 66 152 76 25 6 31 0 81 -77 47 -72 137 -184 202 -252
45 -47 113 -95 165 -115 64 -26 190 -32 257 -12 131 39 217 185 209 355 -5 94
-29 146 -107 238 -89 104 -114 125 -194 163 -100 48 -151 58 -342 70 -29 2
-54 2 -55 1z"/>
</g>
</svg>
