<?xml version="1.0" standalone="no"?>
<!DOCTYPE svg PUBLIC "-//W3C//DTD SVG 20010904//EN"
 "http://www.w3.org/TR/2001/REC-SVG-20010904/DTD/svg10.dtd">
<svg version="1.0" xmlns="http://www.w3.org/2000/svg"
 width="700.000000pt" height="700.000000pt" viewBox="0 0 700.000000 700.000000"
 preserveAspectRatio="xMidYMid meet">
<metadata>
Created by potrace 1.11, written by Peter Selinger 2001-2013
</metadata>
<g transform="translate(0.000000,700.000000) scale(0.100000,-0.100000)"
fill="#000000" stroke="none">
<path d="M4218 6135 c-2 -2 -43 -5 -93 -9 -239 -17 -468 -110 -660 -270 -188
-157 -339 -366 -438 -606 -31 -75 -92 -284 -102 -350 -12 -80 -15 -99 -19
-132 -11 -78 -18 -224 -19 -370 l-2 -158 -325 0 -325 0 0 -160 0 -160 25 0
c14 -1 160 -1 326 -1 l301 -1 -2 -1246 c-1 -833 -5 -1257 -12 -1278 -41 -122
-133 -186 -289 -200 -32 -3 -75 -7 -94 -9 -19 -2 -47 -4 -62 -4 l-26 -1 0
-102 c0 -57 4 -107 8 -113 6 -7 303 -9 862 -8 469 1 856 2 861 2 4 1 7 51 7
111 l0 110 -32 1 c-18 0 -40 2 -48 3 -8 2 -46 6 -84 10 -88 8 -206 33 -273 56
-95 33 -147 84 -176 174 -15 44 -17 172 -17 1271 l0 1223 377 1 c208 0 399 0
424 0 l46 1 0 160 -1 160 -424 0 -424 0 5 363 c3 199 8 385 11 412 12 108 21
176 32 248 48 302 183 530 340 575 65 19 79 15 106 -25 14 -21 55 -83 91 -139
107 -163 231 -269 338 -290 19 -3 67 -6 107 -6 62 0 83 5 136 31 113 55 169
159 170 316 1 79 -3 97 -26 146 -70 142 -232 238 -431 255 -93 7 -166 11 -169
9z"/>
</g>
</svg>
